<svg id="visual" viewBox="0 0 900 600" width="900" height="600" xmlns="http://www.w3.org/2000/svg" xmlns:xlink="http://www.w3.org/1999/xlink" version="1.1"><rect x="0" y="0" width="900" height="600" fill="#ffffff"></rect><path d="M0 386L16.7 395.7C33.3 405.3 66.7 424.7 100 419.7C133.3 414.7 166.7 385.3 200 372.2C233.3 359 266.7 362 300 369.8C333.3 377.7 366.7 390.3 400 395.3C433.3 400.3 466.7 397.7 500 399.3C533.3 401 566.7 407 600 408.2C633.3 409.3 666.7 405.7 700 395.7C733.3 385.7 766.7 369.3 800 362.5C833.3 355.7 866.7 358.3 883.3 359.7L900 361L900 601L883.3 601C866.7 601 833.3 601 800 601C766.7 601 733.3 601 700 601C666.7 601 633.3 601 600 601C566.7 601 533.3 601 500 601C466.7 601 433.3 601 400 601C366.7 601 333.3 601 300 601C266.7 601 233.3 601 200 601C166.7 601 133.3 601 100 601C66.7 601 33.3 601 16.7 601L0 601Z" fill="#ffc07c"></path><path d="M0 453L16.7 455.3C33.3 457.7 66.7 462.3 100 460.2C133.3 458 166.7 449 200 441C233.3 433 266.7 426 300 432.3C333.3 438.7 366.7 458.3 400 465C433.3 471.7 466.7 465.3 500 456.5C533.3 447.7 566.7 436.3 600 432.5C633.3 428.7 666.7 432.3 700 435.3C733.3 438.3 766.7 440.7 800 437.3C833.3 434 866.7 425 883.3 420.5L900 416L900 601L883.3 601C866.7 601 833.3 601 800 601C766.7 601 733.3 601 700 601C666.7 601 633.3 601 600 601C566.7 601 533.3 601 500 601C466.7 601 433.3 601 400 601C366.7 601 333.3 601 300 601C266.7 601 233.3 601 200 601C166.7 601 133.3 601 100 601C66.7 601 33.3 601 16.7 601L0 601Z" fill="#ffaf60"></path><path d="M0 506L16.7 506C33.3 506 66.7 506 100 496C133.3 486 166.7 466 200 462.2C233.3 458.3 266.7 470.7 300 469.3C333.3 468 366.7 453 400 457.5C433.3 462 466.7 486 500 496.8C533.3 507.7 566.7 505.3 600 498C633.3 490.7 666.7 478.3 700 470.5C733.3 462.7 766.7 459.3 800 457.3C833.3 455.3 866.7 454.7 883.3 454.3L900 454L900 601L883.3 601C866.7 601 833.3 601 800 601C766.7 601 733.3 601 700 601C666.7 601 633.3 601 600 601C566.7 601 533.3 601 500 601C466.7 601 433.3 601 400 601C366.7 601 333.3 601 300 601C266.7 601 233.3 601 200 601C166.7 601 133.3 601 100 601C66.7 601 33.3 601 16.7 601L0 601Z" fill="#ff9d45"></path><path d="M0 489L16.7 489.8C33.3 490.7 66.7 492.3 100 495.2C133.3 498 166.7 502 200 503C233.3 504 266.7 502 300 504.3C333.3 506.7 366.7 513.3 400 512.2C433.3 511 466.7 502 500 502.3C533.3 502.7 566.7 512.3 600 514.7C633.3 517 666.7 512 700 508.8C733.3 505.7 766.7 504.3 800 503.2C833.3 502 866.7 501 883.3 500.5L900 500L900 601L883.3 601C866.7 601 833.3 601 800 601C766.7 601 733.3 601 700 601C666.7 601 633.3 601 600 601C566.7 601 533.3 601 500 601C466.7 601 433.3 601 400 601C366.7 601 333.3 601 300 601C266.7 601 233.3 601 200 601C166.7 601 133.3 601 100 601C66.7 601 33.3 601 16.7 601L0 601Z" fill="#ff8929"></path><path d="M0 552L16.7 547.5C33.3 543 66.7 534 100 531.5C133.3 529 166.7 533 200 533C233.3 533 266.7 529 300 532.2C333.3 535.3 366.7 545.7 400 549.5C433.3 553.3 466.7 550.7 500 550.2C533.3 549.7 566.7 551.3 600 550.7C633.3 550 666.7 547 700 550.5C733.3 554 766.7 564 800 563.5C833.3 563 866.7 552 883.3 546.5L900 541L900 601L883.3 601C866.7 601 833.3 601 800 601C766.7 601 733.3 601 700 601C666.7 601 633.3 601 600 601C566.7 601 533.3 601 500 601C466.7 601 433.3 601 400 601C366.7 601 333.3 601 300 601C266.7 601 233.3 601 200 601C166.7 601 133.3 601 100 601C66.7 601 33.3 601 16.7 601L0 601Z" fill="#ff7300"></path></svg>